<svg xmlns="http://www.w3.org/2000/svg" enable-background="new 0 0 16 16" viewBox="0 0 16 16"><path fill="#231f20" d="m 12.222656,1.5039061 c -1.348,0 -2.5040935,0.8250938 -2.9960935,1.9960938 l -8.31445318,0 C 0.41010937,3.4999999 0,3.9081561 0,4.4101561 l 0,2.6796875 c 0,0.262 0.11496875,0.4941563 0.29296874,0.6601563 C 0.11496874,7.9159999 0,8.1481561 0,8.4101561 L 0,11.089844 C 0,11.351844 0.11496875,11.584 0.29296874,11.75 0.11496874,11.916 0,12.148156 0,12.410156 l 0,2.679688 C 0,15.591844 0.41010937,16 0.91210932,16 L 12.589844,16 C 13.091844,16 13.5,15.591844 13.5,15.089844 l 0,-2.679688 C 13.5,12.148156 13.385031,11.916 13.207031,11.75 13.385031,11.584 13.5,11.351844 13.5,11.089844 l 0,-2.6796879 c 0,-0.23 -0.09337,-0.43375 -0.234375,-0.59375 1.279,-0.437 2.207031,-1.6375 2.207031,-3.0625 0,-1.792 -1.458,-3.25 -3.25,-3.25 z m 0,0.5 c 1.517,0 2.75,1.233 2.75,2.75 0,1.503 -1.212937,2.7250938 -2.710937,2.7460938 l -0.07813,0 c -1.498,-0.021 -2.7109378,-1.2430938 -2.7109378,-2.7460938 -10e-4,-1.517 1.2339998,-2.75 2.7499998,-2.75 z m -0.230469,1.5488281 0,1.96875 -0.648437,-0.6113281 -0.341797,0.3652344 1.0625,1 c 0.048,0.044 0.109875,0.068359 0.171875,0.068359 0.063,0 0.124828,-0.023313 0.173828,-0.070312 l 1.03711,-1 L 13.099609,4.9140625 12.492187,5.5 l 0,-1.9472657 -0.5,0 z m -11.08007768,0.4472657 8.15820318,0 c -0.059,0.243 -0.097656,0.4929062 -0.097656,0.7539062 0,1.159 0.6132969,2.1710938 1.5292975,2.7460938 l -9.58984438,0 c -0.22699995,0 -0.41210932,-0.1841563 -0.41210932,-0.4101563 l 0,-2.6796875 c 0,-0.227 0.18610937,-0.4101562 0.41210932,-0.4101562 z m 0.83789068,1.5 0,0.5 4,0 0,-0.5 -4,0 z m -0.83789068,2.5 11.27148468,0 c 0.013,0 0.02506,0.00391 0.03906,0.00391 0.014,0 0.02506,-0.00391 0.03906,-0.00391 l 0.328125,0 c 0.227,0 0.412109,0.1841562 0.412109,0.4101562 l 0,2.6796879 c 0,0.227 -0.186109,0.410156 -0.412109,0.410156 l -11.67773468,0 C 0.68510437,11.5 0.499995,11.315844 0.499995,11.089844 l 0,-2.6796879 c 0,-0.227 0.18610937,-0.4101562 0.41210932,-0.4101562 z M 11.269531,9.4492186 c -0.165,0 -0.298828,0.1357813 -0.298828,0.3007813 0,0.165 0.133828,0.3007811 0.298828,0.3007811 0.166,0 0.302735,-0.1357811 0.302735,-0.3007811 0,-0.165 -0.136735,-0.3007813 -0.302735,-0.3007813 z M 1.75,9.4999996 l 0,0.5 4,0 0,-0.5 -4,0 z M 0.91210932,12 12.589844,12 C 12.816844,12 13,12.184156 13,12.410156 l 0,2.679688 C 13,15.316844 12.815844,15.5 12.589844,15.5 l -11.67773468,0 C 0.68510937,15.5 0.5,15.315844 0.5,15.089844 l 0,-2.679688 C 0.5,12.183156 0.68610937,12 0.91210932,12 Z M 11.24414,13.449219 c -0.164999,0 -0.300781,0.135781 -0.300781,0.300781 0,0.165 0.135781,0.300781 0.300781,0.300781 0.166001,0 0.300782,-0.135781 0.300782,-0.300781 0,-0.165 -0.134782,-0.300781 -0.300782,-0.300781 z m -9.49414,0.05078 0,0.5 4,0 0,-0.5 -4,0 z"/></svg>