<svg xmlns="http://www.w3.org/2000/svg" data-name="Layer 2" viewBox="0 0 100 100"><path d="M93.75,11.5H6.25a1,1,0,0,0-1,1v75a1,1,0,0,0,1,1h87.5a1,1,0,0,0,1-1v-75A1,1,0,0,0,93.75,11.5Zm-86.5,2H19.83v13H7.25Zm85.5,73H7.25v-58h85.5Zm0-60H21.83v-13H92.75Z"/><path d="M59.15 59.68a6.68 6.68 0 0 0 2.1-.32A5.73 5.73 0 0 0 65 52.12L70.12 33a1 1 0 0 0-.69-1.21L66.51 31a1 1 0 0 0-1.23.66L59.45 50a5 5 0 0 0-2.68 2c-1.12 1.31-1.9 2.08-3.08 1.74A1 1 0 0 0 52.47 55 7 7 0 0 0 59.15 59.68zm7.74-26.51l1 .3L63.3 50.85l-1.87-.54zm-8.6 20.06c.71-.82 1.25-1.39 1.6-1.29h0l3.26 1a3.71 3.71 0 0 1-2.51 4.57 5 5 0 0 1-5.57-1.8A6.52 6.52 0 0 0 58.29 53.23zM75.81 56l8-11.14a1 1 0 0 0 0-1.17l-8-11.15-1.62 1.17 7.59 10.56L74.19 54.85zM49.19 56.85l1.62-1.17-8.19-11.4 8.19-11.39-1.62-1.17-8.61 12a1 1 0 0 0 0 1.17zM40.63 68.19H87.88a1 1 0 0 0 1-1V62.5a1 1 0 0 0-1-1H40.63a1 1 0 0 0-1 1v4.69A1 1 0 0 0 40.63 68.19zm1-4.69H86.88v2.69H41.63zM40.63 79.13H78.87a1 1 0 0 0 1-1V73.44a1 1 0 0 0-1-1H40.63a1 1 0 0 0-1 1v4.69A1 1 0 0 0 40.63 79.13zm1-4.69H77.87v2.69H41.63zM11.5 34.38V56.25a1 1 0 0 0 1 1H34.38a1 1 0 0 0 1-1V34.38a1 1 0 0 0-1-1H12.5A1 1 0 0 0 11.5 34.38zm2 1H33.38V55.25H13.5zM34.38 61.5H12.5a1 1 0 0 0-1 1V81.25a1 1 0 0 0 1 1H34.38a1 1 0 0 0 1-1V62.5A1 1 0 0 0 34.38 61.5zm-2.71 2l-8.23 7.06L15.2 63.5zM13.5 64.67l8.4 7.21-8.4 7.2zm1.7 15.58l8.24-7.06 8.23 7.06zm18.18-1.17L25 71.88l8.41-7.21zM38.05 23.12a.87.87 0 0 0 .08.23.37.37 0 0 0 .17.13 1.22 1.22 0 0 0 .32.06h1.06a1.14 1.14 0 0 0 .32-.06.37.37 0 0 0 .16-.14.56.56 0 0 0 .08-.22l1.15-4.8h0l1.22 4.8a.62.62 0 0 0 .08.23.29.29 0 0 0 .17.13 1.14 1.14 0 0 0 .32.06h1a1.13 1.13 0 0 0 .31-.06.34.34 0 0 0 .19-.13.61.61 0 0 0 .09-.23l1.74-6.59a2.36 2.36 0 0 0 .07-.35.29.29 0 0 0-.06-.19.34.34 0 0 0-.21-.08h-.83a.58.58 0 0 0-.23.06.18.18 0 0 0-.11.1.75.75 0 0 0 0 .16L43.8 22h0l-1.43-5.76a.69.69 0 0 0-.07-.19.24.24 0 0 0-.13-.11 1.09 1.09 0 0 0-.25-.05H41a.7.7 0 0 0-.25.06.23.23 0 0 0-.13.1.47.47 0 0 0-.06.19L39.21 22h0l-1.33-5.8a.56.56 0 0 0-.05-.18.2.2 0 0 0-.11-.09.75.75 0 0 0-.24 0h-.91a.45.45 0 0 0-.24.08.21.21 0 0 0-.06.19 1.76 1.76 0 0 0 0 .33zM52.83 23.12a1.38 1.38 0 0 0 .09.23.33.33 0 0 0 .17.13 1.22 1.22 0 0 0 .32.06h1.06a1.06 1.06 0 0 0 .31-.06.35.35 0 0 0 .17-.14.56.56 0 0 0 .08-.22l1.15-4.8h0l1.22 4.8a.48.48 0 0 0 .08.23.29.29 0 0 0 .17.13 1.14 1.14 0 0 0 .32.06h1a1.22 1.22 0 0 0 .32-.06.43.43 0 0 0 .19-.13.61.61 0 0 0 .09-.23l1.74-6.59a1.41 1.41 0 0 0 .06-.35.24.24 0 0 0 0-.19.34.34 0 0 0-.21-.08h-.83a.58.58 0 0 0-.23.06.18.18 0 0 0-.11.1.75.75 0 0 0 0 .16L58.59 22h0l-1.43-5.76a.69.69 0 0 0-.07-.19A.24.24 0 0 0 57 16a1.2 1.2 0 0 0-.26-.05h-.87a.76.76 0 0 0-.25.06.2.2 0 0 0-.12.1.69.69 0 0 0-.07.19L54 22h0l-1.33-5.8a1.06 1.06 0 0 0-.05-.18.2.2 0 0 0-.11-.09.76.76 0 0 0-.25 0h-.9a.45.45 0 0 0-.24.08.25.25 0 0 0-.07.19q0 .12.06.33zM67.62 23.12a1.38 1.38 0 0 0 .09.23.33.33 0 0 0 .17.13 1.14 1.14 0 0 0 .32.06h1.06a1.13 1.13 0 0 0 .31-.06.4.4 0 0 0 .17-.14.79.79 0 0 0 .08-.22L71 18.32h0l1.21 4.8a.87.87 0 0 0 .08.23.37.37 0 0 0 .17.13 1.22 1.22 0 0 0 .32.06h1a1.22 1.22 0 0 0 .32-.06.35.35 0 0 0 .18-.13.61.61 0 0 0 .1-.23l1.74-6.59a1.41 1.41 0 0 0 .06-.35.24.24 0 0 0 0-.19.4.4 0 0 0-.21-.08H75.1a.7.7 0 0 0-.24.06.22.22 0 0 0-.11.1.75.75 0 0 0 0 .16L73.38 22h0l-1.42-5.76a.69.69 0 0 0-.07-.19.28.28 0 0 0-.13-.11 1.2 1.2 0 0 0-.26-.05h-.87a.76.76 0 0 0-.25.06.27.27 0 0 0-.13.1 1.45 1.45 0 0 0-.06.19L68.79 22h0l-1.33-5.8a.6.6 0 0 0 0-.18.19.19 0 0 0-.12-.09.65.65 0 0 0-.24 0h-.9a.45.45 0 0 0-.24.08.25.25 0 0 0-.07.19 2 2 0 0 0 .06.33z"/></svg>