<?xml version="1.0" encoding="UTF-8"?>
<!DOCTYPE svg PUBLIC "-//W3C//DTD SVG 1.1//EN" "http://www.w3.org/Graphics/SVG/1.1/DTD/svg11.dtd">
<svg xmlns="http://www.w3.org/2000/svg" version="1.1" width="64px" height="64px" style="shape-rendering:geometricPrecision; text-rendering:geometricPrecision; image-rendering:optimizeQuality; fill-rule:evenodd; clip-rule:evenodd" xmlns:xlink="http://www.w3.org/1999/xlink">
<g><path style="opacity:0.81" fill="#000000" d="M 49.5,31.5 C 50.404,30.791 50.7373,29.791 50.5,28.5C 47.8333,28.5 45.1667,28.5 42.5,28.5C 42.2627,29.791 42.596,30.791 43.5,31.5C 43.6646,34.5184 43.498,37.5184 43,40.5C 42.2719,34.3781 41.7719,34.2114 41.5,40C 41.725,42.5281 42.0584,45.0281 42.5,47.5C 30.1667,47.5 17.8333,47.5 5.5,47.5C 5.5,35.8333 5.5,24.1667 5.5,12.5C 22.8333,12.5 40.1667,12.5 57.5,12.5C 57.5,24.1667 57.5,35.8333 57.5,47.5C 55.1667,47.5 52.8333,47.5 50.5,47.5C 51.44,43.5369 51.6067,39.5369 51,35.5C 50.6667,37.1667 50.3333,38.8333 50,40.5C 49.502,37.5184 49.3354,34.5184 49.5,31.5 Z M 45.5,13.5 C 46.5862,13.62 47.2528,14.2867 47.5,15.5C 47.1667,16.1667 46.8333,16.8333 46.5,17.5C 45.5713,16.3112 45.238,14.9778 45.5,13.5 Z M 20.5,14.5 C 24.074,13.9079 26.074,15.4079 26.5,19C 24.6086,19.3087 23.2752,18.4753 22.5,16.5C 21.7248,18.4753 20.3914,19.3087 18.5,19C 19.2666,17.5295 19.9332,16.0295 20.5,14.5 Z M 15.5,19.5 C 14.5,19.5 13.5,19.5 12.5,19.5C 13.5,16.8333 14.5,16.8333 15.5,19.5 Z M 32.5,19.5 C 31.5,19.5 30.5,19.5 29.5,19.5C 30.5,16.8333 31.5,16.8333 32.5,19.5 Z M 50.5,20.5 C 47.8333,20.5 45.1667,20.5 42.5,20.5C 45.0441,18.2856 47.7107,18.2856 50.5,20.5 Z M 12.5,19.5 C 12.5,20.5 12.5,21.5 12.5,22.5C 9.83333,21.5 9.83333,20.5 12.5,19.5 Z M 32.5,19.5 C 35.1667,20.5 35.1667,21.5 32.5,22.5C 32.5,21.5 32.5,20.5 32.5,19.5 Z M 11.5,25.5 C 12.0431,25.56 12.3764,25.8933 12.5,26.5C 11.7366,27.7193 10.7366,28.7193 9.5,29.5C 13.665,33.0023 13.3317,33.8356 8.5,32C 6.74475,28.4949 7.74475,26.3282 11.5,25.5 Z M 32.5,25.5 C 38.9183,27.8291 39.085,30.4958 33,33.5C 32.6913,31.6086 33.5247,30.2752 35.5,29.5C 33.7118,28.7174 32.7118,27.3841 32.5,25.5 Z M 49.5,31.5 C 49.0296,30.3065 48.0296,29.6399 46.5,29.5C 44.9704,29.6399 43.9704,30.3065 43.5,31.5C 42.596,30.791 42.2627,29.791 42.5,28.5C 45.1667,28.5 47.8333,28.5 50.5,28.5C 50.7373,29.791 50.404,30.791 49.5,31.5 Z M 12.5,36.5 C 12.5,37.5 12.5,38.5 12.5,39.5C 9.83333,38.5 9.83333,37.5 12.5,36.5 Z M 32.5,36.5 C 35.1667,37.5 35.1667,38.5 32.5,39.5C 32.5,38.5 32.5,37.5 32.5,36.5 Z M 12.5,39.5 C 13.5,39.5 14.5,39.5 15.5,39.5C 14.5,42.1667 13.5,42.1667 12.5,39.5 Z M 18.5,40.5 C 18.56,39.9569 18.8933,39.6236 19.5,39.5C 20.7193,40.2634 21.7193,41.2634 22.5,42.5C 26.0023,38.335 26.8356,38.6683 25,43.5C 21.4949,45.2553 19.3282,44.2553 18.5,40.5 Z M 29.5,39.5 C 30.5,39.5 31.5,39.5 32.5,39.5C 31.5,42.1667 30.5,42.1667 29.5,39.5 Z"/></g>
<g><path style="opacity:0.766" fill="#000000" d="M 20.5,27.5 C 21.8333,27.5 23.1667,27.5 24.5,27.5C 24.5,28.8333 24.5,30.1667 24.5,31.5C 23.1667,31.5 21.8333,31.5 20.5,31.5C 20.5,30.1667 20.5,28.8333 20.5,27.5 Z"/></g>
<g><path style="opacity:0.759" fill="#000000" d="M 49.5,31.5 C 48.0419,34.2145 47.0419,37.2145 46.5,40.5C 45.9581,37.2145 44.9581,34.2145 43.5,31.5C 43.9704,30.3065 44.9704,29.6399 46.5,29.5C 48.0296,29.6399 49.0296,30.3065 49.5,31.5 Z"/></g>
<g><path style="opacity:1" fill="#000000" d="M 43.5,43.5 C 45.2884,42.3775 47.2884,42.2109 49.5,43C 47.5273,43.4955 45.5273,43.6621 43.5,43.5 Z"/></g>
<g><path style="opacity:0.667" fill="#000000" d="M 43.5,45.5 C 45.604,45.2011 47.604,45.5344 49.5,46.5C 48.5,46.8333 47.5,47.1667 46.5,47.5C 44.9704,47.3601 43.9704,46.6935 43.5,45.5 Z"/></g>
<g><path style="opacity:0.997" fill="#000000" d="M 1.5,49.5 C 21.5,49.5 41.5,49.5 61.5,49.5C 61.5,50.5 61.5,51.5 61.5,52.5C 41.5,52.5 21.5,52.5 1.5,52.5C 1.5,51.5 1.5,50.5 1.5,49.5 Z"/></g>
</svg>
