<?xml version="1.0" encoding="UTF-8"?>
<!DOCTYPE svg PUBLIC "-//W3C//DTD SVG 1.1//EN" "http://www.w3.org/Graphics/SVG/1.1/DTD/svg11.dtd">
<svg xmlns="http://www.w3.org/2000/svg" version="1.1" width="512px" height="512px" style="shape-rendering:geometricPrecision; text-rendering:geometricPrecision; image-rendering:optimizeQuality; fill-rule:evenodd; clip-rule:evenodd" xmlns:xlink="http://www.w3.org/1999/xlink">
<g><path style="opacity:0.991" fill="#000000" d="M 511.5,54.5 C 511.5,136.833 511.5,219.167 511.5,301.5C 340.833,301.5 170.167,301.5 -0.5,301.5C -0.5,219.167 -0.5,136.833 -0.5,54.5C 3.30941,41.8584 11.6427,33.6917 24.5,30C 178.5,29.3333 332.5,29.3333 486.5,30C 499.357,33.6917 507.691,41.8584 511.5,54.5 Z M 173.5,126.5 C 185.305,127.451 190.471,133.784 189,145.5C 188.333,146.833 187.667,148.167 187,149.5C 176.319,160.014 165.819,170.681 155.5,181.5C 165.819,192.319 176.319,202.986 187,213.5C 192.211,225.958 188.211,233.625 175,236.5C 171.855,236.01 169.022,234.843 166.5,233C 152,218.5 137.5,204 123,189.5C 119.667,184.167 119.667,178.833 123,173.5C 137.833,158.667 152.667,143.833 167.5,129C 169.611,128.155 171.611,127.322 173.5,126.5 Z M 273.5,126.5 C 286.089,127.575 291.256,134.241 289,146.5C 275,174.5 261,202.5 247,230.5C 237.1,239.091 228.767,237.758 222,226.5C 221.654,224.782 221.154,223.115 220.5,221.5C 234.451,191.598 248.951,161.932 264,132.5C 266.843,129.837 270.009,127.837 273.5,126.5 Z M 333.5,126.5 C 336.988,126.705 340.321,127.539 343.5,129C 358.333,143.833 373.167,158.667 388,173.5C 391.333,178.833 391.333,184.167 388,189.5C 373.5,204 359,218.5 344.5,233C 334.386,238.428 326.886,235.928 322,225.5C 321.035,221.218 321.702,217.218 324,213.5C 334.681,202.986 345.181,192.319 355.5,181.5C 345.181,170.681 334.681,160.014 324,149.5C 319.093,138.37 322.26,130.703 333.5,126.5 Z"/></g>
<g><path style="opacity:0.987" fill="#000000" d="M -0.5,330.5 C 170.167,330.5 340.833,330.5 511.5,330.5C 511.5,342.5 511.5,354.5 511.5,366.5C 507.227,379.672 498.227,387.839 484.5,391C 331.833,391.667 179.167,391.667 26.5,391C 12.508,388.168 3.50803,380.002 -0.5,366.5C -0.5,354.5 -0.5,342.5 -0.5,330.5 Z"/></g>
<g><path style="opacity:0.98" fill="#000000" d="M 176.5,420.5 C 229.171,420.167 281.838,420.5 334.5,421.5C 337.74,431.054 341.073,440.554 344.5,450C 357.223,450.079 369.889,450.746 382.5,452C 391.564,457.866 393.731,465.7 389,475.5C 387.062,478.106 384.562,479.939 381.5,481C 297.5,481.667 213.5,481.667 129.5,481C 119.6,475.63 117.1,467.797 122,457.5C 124.488,453.675 127.988,451.508 132.5,451C 143.833,450.667 155.167,450.333 166.5,450C 170.132,440.271 173.465,430.438 176.5,420.5 Z"/></g>
</svg>
