<?xml version="1.0" encoding="UTF-8"?>
<!DOCTYPE svg PUBLIC "-//W3C//DTD SVG 1.1//EN" "http://www.w3.org/Graphics/SVG/1.1/DTD/svg11.dtd">
<svg xmlns="http://www.w3.org/2000/svg" version="1.1" width="512px" height="512px" style="shape-rendering:geometricPrecision; text-rendering:geometricPrecision; image-rendering:optimizeQuality; fill-rule:evenodd; clip-rule:evenodd" xmlns:xlink="http://www.w3.org/1999/xlink">
<g><path style="opacity:0.989" fill="#000000" d="M 350.5,7.5 C 408.426,3.5484 453.259,25.5484 485,73.5C 506.62,113.599 509.286,154.932 493,197.5C 472.577,241.08 438.744,267.747 391.5,277.5C 391.5,288.833 391.5,300.167 391.5,311.5C 407.5,311.5 423.5,311.5 439.5,311.5C 439.5,327.5 439.5,343.5 439.5,359.5C 455.17,359.333 470.837,359.5 486.5,360C 494.667,362.833 500.167,368.333 503,376.5C 503.974,403.562 503.64,430.562 502,457.5C 499.167,463 495,467.167 489.5,470C 480.916,471.41 472.25,471.91 463.5,471.5C 463.5,476.833 463.5,482.167 463.5,487.5C 468.833,487.5 474.167,487.5 479.5,487.5C 479.5,492.833 479.5,498.167 479.5,503.5C 447.5,503.5 415.5,503.5 383.5,503.5C 383.5,498.167 383.5,492.833 383.5,487.5C 388.833,487.5 394.167,487.5 399.5,487.5C 399.5,482.167 399.5,476.833 399.5,471.5C 391.826,471.666 384.159,471.5 376.5,471C 368.333,468.167 362.833,462.667 360,454.5C 359.5,438.837 359.333,423.17 359.5,407.5C 348.833,407.5 338.167,407.5 327.5,407.5C 327.667,423.17 327.5,438.837 327,454.5C 324.167,462.667 318.667,468.167 310.5,471C 302.841,471.5 295.174,471.666 287.5,471.5C 287.5,476.833 287.5,482.167 287.5,487.5C 292.833,487.5 298.167,487.5 303.5,487.5C 303.5,492.833 303.5,498.167 303.5,503.5C 271.5,503.5 239.5,503.5 207.5,503.5C 207.5,498.167 207.5,492.833 207.5,487.5C 212.833,487.5 218.167,487.5 223.5,487.5C 223.5,482.167 223.5,476.833 223.5,471.5C 215.826,471.666 208.159,471.5 200.5,471C 192.333,468.167 186.833,462.667 184,454.5C 183.5,438.837 183.333,423.17 183.5,407.5C 172.833,407.5 162.167,407.5 151.5,407.5C 151.667,423.17 151.5,438.837 151,454.5C 148.167,462.667 142.667,468.167 134.5,471C 126.841,471.5 119.174,471.666 111.5,471.5C 111.5,476.833 111.5,482.167 111.5,487.5C 116.833,487.5 122.167,487.5 127.5,487.5C 127.5,492.833 127.5,498.167 127.5,503.5C 95.5,503.5 63.5,503.5 31.5,503.5C 31.5,498.167 31.5,492.833 31.5,487.5C 36.8333,487.5 42.1667,487.5 47.5,487.5C 47.5,482.167 47.5,476.833 47.5,471.5C 38.7502,471.91 30.0836,471.41 21.5,470C 16,467.167 11.8333,463 9,457.5C 7.35979,430.562 7.02646,403.562 8,376.5C 10.8333,368.333 16.3333,362.833 24.5,360C 40.1631,359.5 55.8298,359.333 71.5,359.5C 71.5,343.5 71.5,327.5 71.5,311.5C 87.5,311.5 103.5,311.5 119.5,311.5C 119.5,300.833 119.5,290.167 119.5,279.5C 107.829,279.667 96.1619,279.5 84.5,279C 51.4331,269.233 36.5998,247.066 40,212.5C 46.1013,186.692 62.2679,171.692 88.5,167.5C 96.054,129.109 118.387,103.609 155.5,91C 184.659,82.903 211.826,87.0697 237,103.5C 256.06,49.2713 293.893,17.2713 350.5,7.5 Z M 316.5,271.5 C 327.983,274.713 339.65,277.213 351.5,279C 359.493,279.5 367.493,279.666 375.5,279.5C 375.5,295.5 375.5,311.5 375.5,327.5C 391.5,327.5 407.5,327.5 423.5,327.5C 423.5,338.167 423.5,348.833 423.5,359.5C 406.763,359.044 390.097,359.544 373.5,361C 361.446,367.625 356.779,377.792 359.5,391.5C 348.833,391.5 338.167,391.5 327.5,391.5C 330.295,376.248 324.628,365.748 310.5,360C 294.837,359.5 279.17,359.333 263.5,359.5C 263.5,332.833 263.5,306.167 263.5,279.5C 275.171,279.667 286.838,279.5 298.5,279C 305.117,277.746 311.117,275.246 316.5,271.5 Z M 135.5,279.5 C 172.833,279.5 210.167,279.5 247.5,279.5C 247.5,306.167 247.5,332.833 247.5,359.5C 230.763,359.044 214.097,359.544 197.5,361C 185.446,367.625 180.779,377.792 183.5,391.5C 172.833,391.5 162.167,391.5 151.5,391.5C 154.295,376.248 148.628,365.748 134.5,360C 118.837,359.5 103.17,359.333 87.5,359.5C 87.5,348.833 87.5,338.167 87.5,327.5C 103.5,327.5 119.5,327.5 135.5,327.5C 135.5,311.5 135.5,295.5 135.5,279.5 Z"/></g>
<g><path style="opacity:1" fill="#68d4f2" d="M 361.5,23.5 C 370.289,22.8633 378.289,25.03 385.5,30C 398.052,41.388 406.718,55.2214 411.5,71.5C 382.167,71.5 352.833,71.5 323.5,71.5C 328.282,55.2214 336.948,41.388 349.5,30C 353.434,27.5361 357.434,25.3694 361.5,23.5 Z"/></g>
<g><path style="opacity:1" fill="#67d2ef" d="M 325.5,30.5 C 326.525,30.8966 326.692,31.5632 326,32.5C 316.847,44.1386 310.347,57.1386 306.5,71.5C 294.829,71.6665 283.162,71.4999 271.5,71C 286.128,52.8684 304.128,39.3684 325.5,30.5 Z"/></g>
<g><path style="opacity:1" fill="#67d2ef" d="M 409.5,31.5 C 430.834,39.4985 448.501,52.4985 462.5,70.5C 451.186,71.4988 439.853,71.8322 428.5,71.5C 424.291,57.0841 417.957,43.7508 409.5,31.5 Z"/></g>
<g><path style="opacity:1" fill="#68d4f2" d="M 261.5,87.5 C 274.833,87.5 288.167,87.5 301.5,87.5C 297.639,103.249 295.972,119.249 296.5,135.5C 286.494,135.666 276.494,135.5 266.5,135C 262.43,128.26 257.596,122.093 252,116.5C 252.845,106.13 256.012,96.4629 261.5,87.5 Z"/></g>
<g><path style="opacity:1" fill="#68d5f2" d="M 317.5,87.5 C 350.833,87.5 384.167,87.5 417.5,87.5C 420.807,103.34 422.807,119.34 423.5,135.5C 386.167,135.5 348.833,135.5 311.5,135.5C 312.113,119.317 314.113,103.317 317.5,87.5 Z"/></g>
<g><path style="opacity:1" fill="#68d4f2" d="M 433.5,87.5 C 446.837,87.3334 460.171,87.5001 473.5,88C 481.967,102.703 486.301,118.536 486.5,135.5C 470.833,135.5 455.167,135.5 439.5,135.5C 438.9,119.305 436.9,103.305 433.5,87.5 Z"/></g>
<g><path style="opacity:1" fill="#e4e7eb" d="M 171.5,103.5 C 213.045,101.172 242.212,118.839 259,156.5C 262.523,167.214 264.356,178.214 264.5,189.5C 281.011,180.963 297.011,181.796 312.5,192C 330.013,208.966 332.18,227.799 319,248.5C 312.681,255.745 304.848,260.578 295.5,263C 224.789,263.987 154.123,263.654 83.5,262C 61.378,252.26 52.5447,235.426 57,211.5C 65.7227,191.05 81.2227,181.717 103.5,183.5C 106.536,140.071 129.202,113.404 171.5,103.5 Z"/></g>
<g><path style="opacity:1" fill="#040404" d="M 183.5,119.5 C 214.249,121.273 234.582,136.606 244.5,165.5C 239.757,166.519 235.091,167.853 230.5,169.5C 224.277,154.443 213.61,143.943 198.5,138C 193.675,136.105 188.675,135.272 183.5,135.5C 183.5,130.167 183.5,124.833 183.5,119.5 Z"/></g>
<g><path style="opacity:1" fill="#66d1ee" d="M 284.5,167.5 C 281.789,167.815 279.456,167.148 277.5,165.5C 276.815,160.761 275.815,156.094 274.5,151.5C 281.833,151.5 289.167,151.5 296.5,151.5C 296.5,157.167 296.5,162.833 296.5,168.5C 292.534,167.838 288.534,167.505 284.5,167.5 Z"/></g>
<g><path style="opacity:1" fill="#68d5f3" d="M 312.5,151.5 C 349.5,151.5 386.5,151.5 423.5,151.5C 422.585,167.655 420.585,183.655 417.5,199.5C 390.825,199.833 364.158,199.5 337.5,198.5C 334.581,193.66 331.414,188.994 328,184.5C 323.923,180.588 319.423,177.255 314.5,174.5C 313.702,172.922 313.202,171.256 313,169.5C 312.501,163.509 312.334,157.509 312.5,151.5 Z"/></g>
<g><path style="opacity:1" fill="#68d4f1" d="M 438.5,151.5 C 454.5,151.5 470.5,151.5 486.5,151.5C 486.297,168.479 481.964,184.312 473.5,199C 460.171,199.5 446.837,199.667 433.5,199.5C 436.696,183.658 438.363,167.658 438.5,151.5 Z"/></g>
<g><path style="opacity:1" fill="#244953" d="M 277.5,165.5 C 279.456,167.148 281.789,167.815 284.5,167.5C 282.393,168.468 280.059,168.802 277.5,168.5C 277.5,167.5 277.5,166.5 277.5,165.5 Z"/></g>
<g><path style="opacity:1" fill="#030303" d="M 121.5,199.5 C 135.853,198.253 145.686,204.253 151,217.5C 152.817,232.369 146.651,242.203 132.5,247C 118.082,248.535 108.582,242.368 104,228.5C 102.669,214.493 108.502,204.826 121.5,199.5 Z"/></g>
<g><path style="opacity:1" fill="#030303" d="M 185.5,199.5 C 199.853,198.253 209.686,204.253 215,217.5C 216.817,232.369 210.651,242.203 196.5,247C 182.082,248.535 172.582,242.368 168,228.5C 166.669,214.493 172.502,204.826 185.5,199.5 Z"/></g>
<g><path style="opacity:1" fill="#030303" d="M 249.5,199.5 C 263.853,198.253 273.686,204.253 279,217.5C 280.817,232.369 274.651,242.203 260.5,247C 246.082,248.535 236.582,242.368 232,228.5C 230.669,214.493 236.502,204.826 249.5,199.5 Z"/></g>
<g><path style="opacity:1" fill="#68d4f2" d="M 343.5,215.5 C 366.176,215.167 388.843,215.5 411.5,216.5C 406.247,232.241 397.58,245.741 385.5,257C 378.609,261.807 370.943,263.974 362.5,263.5C 351.858,263.385 341.525,261.551 331.5,258C 340.859,245.415 344.859,231.248 343.5,215.5 Z"/></g>
<g><path style="opacity:1" fill="#67d1ef" d="M 428.5,215.5 C 439.853,215.168 451.186,215.501 462.5,216.5C 448.537,234.864 430.871,247.531 409.5,254.5C 417.928,242.569 424.261,229.569 428.5,215.5 Z"/></g>
<g><path style="opacity:1" fill="#f37c69" d="M 124.5,215.5 C 132.658,214.823 136.158,218.49 135,226.5C 132.774,230.861 129.274,232.361 124.5,231C 120.139,228.774 118.639,225.274 120,220.5C 121.025,218.313 122.525,216.646 124.5,215.5 Z"/></g>
<g><path style="opacity:1" fill="#f37c69" d="M 188.5,215.5 C 196.658,214.823 200.158,218.49 199,226.5C 196.774,230.861 193.274,232.361 188.5,231C 184.139,228.774 182.639,225.274 184,220.5C 185.025,218.313 186.525,216.646 188.5,215.5 Z"/></g>
<g><path style="opacity:1" fill="#f37c69" d="M 252.5,215.5 C 260.658,214.823 264.158,218.49 263,226.5C 260.774,230.861 257.274,232.361 252.5,231C 248.139,228.774 246.639,225.274 248,220.5C 249.025,218.313 250.525,216.646 252.5,215.5 Z"/></g>
<g><path style="opacity:1" fill="#68d5f3" d="M 28.5,375.5 C 62.5016,375.333 96.5016,375.5 130.5,376C 132.667,376.833 134.167,378.333 135,380.5C 135.5,394.829 135.667,409.163 135.5,423.5C 98.1667,423.5 60.8333,423.5 23.5,423.5C 23.3334,409.163 23.5001,394.829 24,380.5C 25.025,378.313 26.525,376.646 28.5,375.5 Z"/></g>
<g><path style="opacity:1" fill="#68d5f3" d="M 204.5,375.5 C 238.502,375.333 272.502,375.5 306.5,376C 308.667,376.833 310.167,378.333 311,380.5C 311.5,394.829 311.667,409.163 311.5,423.5C 274.167,423.5 236.833,423.5 199.5,423.5C 199.333,409.163 199.5,394.829 200,380.5C 201.025,378.313 202.525,376.646 204.5,375.5 Z"/></g>
<g><path style="opacity:1" fill="#68d5f3" d="M 380.5,375.5 C 414.502,375.333 448.502,375.5 482.5,376C 484.667,376.833 486.167,378.333 487,380.5C 487.5,394.829 487.667,409.163 487.5,423.5C 450.167,423.5 412.833,423.5 375.5,423.5C 375.333,409.163 375.5,394.829 376,380.5C 377.025,378.313 378.525,376.646 380.5,375.5 Z"/></g>
<g><path style="opacity:1" fill="#cbd0d8" d="M 23.5,439.5 C 60.8333,439.5 98.1667,439.5 135.5,439.5C 135.665,443.182 135.499,446.848 135,450.5C 134.167,452.667 132.667,454.167 130.5,455C 96.5,455.667 62.5,455.667 28.5,455C 26.3333,454.167 24.8333,452.667 24,450.5C 23.5014,446.848 23.3347,443.182 23.5,439.5 Z"/></g>
<g><path style="opacity:1" fill="#cbd0d8" d="M 199.5,439.5 C 236.833,439.5 274.167,439.5 311.5,439.5C 311.665,443.182 311.499,446.848 311,450.5C 310.167,452.667 308.667,454.167 306.5,455C 272.5,455.667 238.5,455.667 204.5,455C 202.333,454.167 200.833,452.667 200,450.5C 199.501,446.848 199.335,443.182 199.5,439.5 Z"/></g>
<g><path style="opacity:1" fill="#cbd0d8" d="M 375.5,439.5 C 412.833,439.5 450.167,439.5 487.5,439.5C 487.665,443.182 487.499,446.848 487,450.5C 486.167,452.667 484.667,454.167 482.5,455C 448.5,455.667 414.5,455.667 380.5,455C 378.333,454.167 376.833,452.667 376,450.5C 375.501,446.848 375.335,443.182 375.5,439.5 Z"/></g>
<g><path style="opacity:1" fill="#a9b2bc" d="M 63.5,471.5 C 74.1667,471.5 84.8333,471.5 95.5,471.5C 95.5,476.833 95.5,482.167 95.5,487.5C 84.8333,487.5 74.1667,487.5 63.5,487.5C 63.5,482.167 63.5,476.833 63.5,471.5 Z"/></g>
<g><path style="opacity:1" fill="#a9b2bc" d="M 239.5,471.5 C 250.167,471.5 260.833,471.5 271.5,471.5C 271.5,476.833 271.5,482.167 271.5,487.5C 260.833,487.5 250.167,487.5 239.5,487.5C 239.5,482.167 239.5,476.833 239.5,471.5 Z"/></g>
<g><path style="opacity:1" fill="#a9b2bc" d="M 415.5,471.5 C 426.167,471.5 436.833,471.5 447.5,471.5C 447.5,476.833 447.5,482.167 447.5,487.5C 436.833,487.5 426.167,487.5 415.5,487.5C 415.5,482.167 415.5,476.833 415.5,471.5 Z"/></g>
</svg>
