<?xml version="1.0" encoding="UTF-8"?>
<!DOCTYPE svg PUBLIC "-//W3C//DTD SVG 1.1//EN" "http://www.w3.org/Graphics/SVG/1.1/DTD/svg11.dtd">
<svg xmlns="http://www.w3.org/2000/svg" version="1.1" width="512px" height="512px" style="shape-rendering:geometricPrecision; text-rendering:geometricPrecision; image-rendering:optimizeQuality; fill-rule:evenodd; clip-rule:evenodd" xmlns:xlink="http://www.w3.org/1999/xlink">
<g><path style="opacity:0.963" fill="#000000" d="M 237.5,15.5 C 310.938,11.2844 363.771,41.951 396,107.5C 398.673,114.019 400.84,120.686 402.5,127.5C 449.438,124.2 479.938,144.867 494,189.5C 500.512,231.978 484.679,262.811 446.5,282C 440.668,284.277 434.668,285.944 428.5,287C 408.169,287.5 387.836,287.667 367.5,287.5C 367.933,298.91 367.433,310.244 366,321.5C 361.575,331.128 354.075,335.795 343.5,335.5C 343.5,346.167 343.5,356.833 343.5,367.5C 373.167,367.5 402.833,367.5 432.5,367.5C 435.225,354.94 442.892,347.107 455.5,344C 472.357,340.848 484.857,346.682 493,361.5C 499.086,378.226 495.252,392.059 481.5,403C 463.7,411.625 448.534,408.458 436,393.5C 433.965,390.439 432.799,387.105 432.5,383.5C 398.832,383.667 365.165,383.5 331.5,383C 329.667,382.5 328.5,381.333 328,379.5C 327.5,364.837 327.333,350.17 327.5,335.5C 322.167,335.5 316.833,335.5 311.5,335.5C 311.5,356.833 311.5,378.167 311.5,399.5C 334.169,399.333 356.836,399.5 379.5,400C 381.333,400.5 382.5,401.667 383,403.5C 383.5,413.161 383.666,422.828 383.5,432.5C 396.06,435.225 403.893,442.892 407,455.5C 410.146,472.368 404.312,484.868 389.5,493C 372.774,499.086 358.941,495.252 348,481.5C 342.001,469.488 342.001,457.488 348,445.5C 352.782,438.544 359.282,434.211 367.5,432.5C 367.5,426.833 367.5,421.167 367.5,415.5C 344.831,415.667 322.164,415.5 299.5,415C 298.584,414.626 297.75,414.126 297,413.5C 295.518,387.589 295.018,361.589 295.5,335.5C 284.833,335.5 274.167,335.5 263.5,335.5C 263.5,362.5 263.5,389.5 263.5,416.5C 276.06,419.225 283.893,426.892 287,439.5C 290.146,456.368 284.312,468.868 269.5,477C 252.774,483.086 238.941,479.252 228,465.5C 222.001,453.488 222.001,441.488 228,429.5C 232.782,422.544 239.282,418.211 247.5,416.5C 247.5,389.5 247.5,362.5 247.5,335.5C 236.833,335.5 226.167,335.5 215.5,335.5C 215.982,361.589 215.482,387.589 214,413.5C 213.25,414.126 212.416,414.626 211.5,415C 188.836,415.5 166.169,415.667 143.5,415.5C 143.5,421.167 143.5,426.833 143.5,432.5C 156.06,435.225 163.893,442.892 167,455.5C 170.146,472.368 164.312,484.868 149.5,493C 132.774,499.086 118.941,495.252 108,481.5C 102.001,469.488 102.001,457.488 108,445.5C 112.782,438.544 119.282,434.211 127.5,432.5C 127.334,422.828 127.5,413.161 128,403.5C 128.5,401.667 129.667,400.5 131.5,400C 154.164,399.5 176.831,399.333 199.5,399.5C 199.5,378.167 199.5,356.833 199.5,335.5C 194.167,335.5 188.833,335.5 183.5,335.5C 183.667,350.17 183.5,364.837 183,379.5C 182.5,381.333 181.333,382.5 179.5,383C 145.835,383.5 112.168,383.667 78.5,383.5C 75.7607,396.073 68.094,403.907 55.5,407C 38.6317,410.146 26.1317,404.312 18,389.5C 11.8137,372.732 15.647,358.899 29.5,348C 47.2996,339.375 62.4663,342.542 75,357.5C 77.0347,360.561 78.2014,363.895 78.5,367.5C 108.167,367.5 137.833,367.5 167.5,367.5C 167.5,356.833 167.5,346.167 167.5,335.5C 155.629,335.468 147.796,329.802 144,318.5C 143.5,308.172 143.334,297.839 143.5,287.5C 128.163,287.667 112.83,287.5 97.5,287C 54.8625,278.696 28.0291,253.529 17,211.5C 9.98864,167.04 25.1553,132.54 62.5,108C 80.8735,97.9906 100.54,93.4906 121.5,94.5C 147.595,49.7804 186.261,23.447 237.5,15.5 Z M 253.5,31.5 C 310.158,33.7171 351.658,59.7171 378,109.5C 382.863,120.09 386.53,131.09 389,142.5C 391,145.167 393.667,146.5 397,146.5C 434.884,138.94 461.217,152.94 476,188.5C 483.801,222.463 472.634,247.963 442.5,265C 437.36,267.269 432.027,268.935 426.5,270C 406.517,271.7 386.517,271.866 366.5,270.5C 365.42,268.004 364.086,265.67 362.5,263.5C 364.527,260.779 366.027,257.779 367,254.5C 367.667,239.167 367.667,223.833 367,208.5C 366.027,205.221 364.527,202.221 362.5,199.5C 364.527,196.779 366.027,193.779 367,190.5C 367.667,175.167 367.667,159.833 367,144.5C 364.167,136.333 358.667,130.833 350.5,128C 286.109,127.011 221.776,127.344 157.5,129C 150.851,132.314 146.351,137.481 144,144.5C 143.333,159.833 143.333,175.167 144,190.5C 144.973,193.779 146.473,196.779 148.5,199.5C 146.473,202.221 144.973,205.221 144,208.5C 143.333,223.833 143.333,239.167 144,254.5C 144.973,257.779 146.473,260.779 148.5,263.5C 146.914,265.67 145.58,268.004 144.5,270.5C 124.951,272.524 105.618,271.357 86.5,267C 47.4149,251.022 29.5816,221.855 33,179.5C 39.2909,148.547 57.1242,127.381 86.5,116C 99.4569,112.045 112.457,111.212 125.5,113.5C 127.197,113.101 128.863,112.601 130.5,112C 156.606,62.3919 197.606,35.5586 253.5,31.5 Z M 167.5,143.5 C 226.168,143.333 284.834,143.5 343.5,144C 348,144.5 350.5,147 351,151.5C 351.667,162.167 351.667,172.833 351,183.5C 350.5,188 348,190.5 343.5,191C 284.833,191.667 226.167,191.667 167.5,191C 164.506,190.594 162.339,189.094 161,186.5C 159.897,180.244 159.397,173.911 159.5,167.5C 159.532,161.631 159.865,155.798 160.5,150C 161.621,146.453 163.954,144.286 167.5,143.5 Z M 167.5,207.5 C 226.168,207.333 284.834,207.5 343.5,208C 348,208.5 350.5,211 351,215.5C 351.667,226.167 351.667,236.833 351,247.5C 350.5,252 348,254.5 343.5,255C 284.833,255.667 226.167,255.667 167.5,255C 164.506,254.594 162.339,253.094 161,250.5C 159.897,244.244 159.397,237.911 159.5,231.5C 159.532,225.631 159.865,219.798 160.5,214C 161.621,210.453 163.954,208.286 167.5,207.5 Z M 167.5,271.5 C 226.168,271.333 284.834,271.5 343.5,272C 348,272.5 350.5,275 351,279.5C 351.667,290.167 351.667,300.833 351,311.5C 350.5,316 348,318.5 343.5,319C 284.833,319.667 226.167,319.667 167.5,319C 164.506,318.594 162.339,317.094 161,314.5C 159.897,308.244 159.397,301.911 159.5,295.5C 159.532,289.631 159.865,283.798 160.5,278C 161.621,274.453 163.954,272.286 167.5,271.5 Z M 42.5,360.5 C 59.7649,360.257 65.5982,368.257 60,384.5C 53.7488,391.011 46.5821,392.177 38.5,388C 31.9893,381.749 30.8227,374.582 35,366.5C 37.1141,363.879 39.6141,361.879 42.5,360.5 Z M 458.5,360.5 C 475.765,360.257 481.598,368.257 476,384.5C 469.749,391.011 462.582,392.177 454.5,388C 447.989,381.749 446.823,374.582 451,366.5C 453.114,363.879 455.614,361.879 458.5,360.5 Z M 250.5,432.5 C 267.765,432.257 273.598,440.257 268,456.5C 261.749,463.011 254.582,464.177 246.5,460C 239.989,453.749 238.823,446.582 243,438.5C 245.114,435.879 247.614,433.879 250.5,432.5 Z M 130.5,448.5 C 147.765,448.257 153.598,456.257 148,472.5C 141.749,479.011 134.582,480.177 126.5,476C 119.989,469.749 118.823,462.582 123,454.5C 125.114,451.879 127.614,449.879 130.5,448.5 Z M 370.5,448.5 C 387.765,448.257 393.598,456.257 388,472.5C 381.749,479.011 374.582,480.177 366.5,476C 359.989,469.749 358.823,462.582 363,454.5C 365.114,451.879 367.614,449.879 370.5,448.5 Z"/></g>
<g><path style="opacity:1" fill="#000000" d="M 175.5,159.5 C 207.5,159.5 239.5,159.5 271.5,159.5C 271.5,164.833 271.5,170.167 271.5,175.5C 239.5,175.5 207.5,175.5 175.5,175.5C 175.5,170.167 175.5,164.833 175.5,159.5 Z"/></g>
<g><path style="opacity:1" fill="#000000" d="M 287.5,159.5 C 292.833,159.5 298.167,159.5 303.5,159.5C 303.5,164.833 303.5,170.167 303.5,175.5C 298.167,175.5 292.833,175.5 287.5,175.5C 287.5,170.167 287.5,164.833 287.5,159.5 Z"/></g>
<g><path style="opacity:1" fill="#000000" d="M 319.5,159.5 C 324.833,159.5 330.167,159.5 335.5,159.5C 335.5,164.833 335.5,170.167 335.5,175.5C 330.167,175.5 324.833,175.5 319.5,175.5C 319.5,170.167 319.5,164.833 319.5,159.5 Z"/></g>
<g><path style="opacity:1" fill="#000000" d="M 175.5,223.5 C 207.5,223.5 239.5,223.5 271.5,223.5C 271.5,228.833 271.5,234.167 271.5,239.5C 239.5,239.5 207.5,239.5 175.5,239.5C 175.5,234.167 175.5,228.833 175.5,223.5 Z"/></g>
<g><path style="opacity:1" fill="#000000" d="M 287.5,223.5 C 292.833,223.5 298.167,223.5 303.5,223.5C 303.5,228.833 303.5,234.167 303.5,239.5C 298.167,239.5 292.833,239.5 287.5,239.5C 287.5,234.167 287.5,228.833 287.5,223.5 Z"/></g>
<g><path style="opacity:1" fill="#000000" d="M 319.5,223.5 C 324.833,223.5 330.167,223.5 335.5,223.5C 335.5,228.833 335.5,234.167 335.5,239.5C 330.167,239.5 324.833,239.5 319.5,239.5C 319.5,234.167 319.5,228.833 319.5,223.5 Z"/></g>
<g><path style="opacity:1" fill="#000000" d="M 175.5,287.5 C 207.5,287.5 239.5,287.5 271.5,287.5C 271.5,292.833 271.5,298.167 271.5,303.5C 239.5,303.5 207.5,303.5 175.5,303.5C 175.5,298.167 175.5,292.833 175.5,287.5 Z"/></g>
<g><path style="opacity:1" fill="#000000" d="M 287.5,287.5 C 292.833,287.5 298.167,287.5 303.5,287.5C 303.5,292.833 303.5,298.167 303.5,303.5C 298.167,303.5 292.833,303.5 287.5,303.5C 287.5,298.167 287.5,292.833 287.5,287.5 Z"/></g>
<g><path style="opacity:1" fill="#000000" d="M 319.5,287.5 C 324.833,287.5 330.167,287.5 335.5,287.5C 335.5,292.833 335.5,298.167 335.5,303.5C 330.167,303.5 324.833,303.5 319.5,303.5C 319.5,298.167 319.5,292.833 319.5,287.5 Z"/></g>
</svg>
