<?xml version="1.0" encoding="UTF-8"?>
<!DOCTYPE svg PUBLIC "-//W3C//DTD SVG 1.1//EN" "http://www.w3.org/Graphics/SVG/1.1/DTD/svg11.dtd">
<svg xmlns="http://www.w3.org/2000/svg" version="1.1" width="512px" height="512px" style="shape-rendering:geometricPrecision; text-rendering:geometricPrecision; image-rendering:optimizeQuality; fill-rule:evenodd; clip-rule:evenodd" xmlns:xlink="http://www.w3.org/1999/xlink">
<g><path style="opacity:0.864" fill="#88d146" d="M 306.5,29.5 C 309.118,34.1178 312.784,37.7845 317.5,40.5C 312.14,42.3605 308.64,46.0272 307,51.5C 305.855,49.0742 304.522,46.7409 303,44.5C 300.707,42.6277 298.207,41.1277 295.5,40C 300.962,38.3714 304.628,34.8714 306.5,29.5 Z"/></g>
<g><path style="opacity:0.989" fill="#030304" d="M -0.5,388.5 C -0.5,286.5 -0.5,184.5 -0.5,82.5C 2.98314,72.8514 9.64981,66.3514 19.5,63C 157.167,62.3333 294.833,62.3333 432.5,63C 444.408,66.9092 451.242,75.0758 453,87.5C 453.5,135.832 453.667,184.166 453.5,232.5C 471.822,228.743 484.322,235.41 491,252.5C 491.667,322.167 491.667,391.833 491,461.5C 487.727,471.774 480.894,478.274 470.5,481C 432.833,481.667 395.167,481.667 357.5,481C 346.248,478.081 339.415,470.914 337,459.5C 336.5,442.837 336.333,426.17 336.5,409.5C 316.167,409.5 295.833,409.5 275.5,409.5C 275.5,422.5 275.5,435.5 275.5,448.5C 286.172,448.333 296.839,448.5 307.5,449C 319.838,451.847 324.338,459.347 321,471.5C 319.073,476.428 315.573,479.594 310.5,481C 282.333,481.167 254.167,481.333 226,481.5C 196.774,481.655 167.607,481.155 138.5,480C 130.944,475.152 128.444,468.318 131,459.5C 133.451,453.384 137.951,449.884 144.5,449C 155.161,448.5 165.828,448.333 176.5,448.5C 176.5,435.5 176.5,422.5 176.5,409.5C 124.499,409.667 72.4989,409.5 20.5,409C 9.65172,405.984 2.65172,399.151 -0.5,388.5 Z"/></g>
<g><path style="opacity:1" fill="#518fda" d="M 22.5,72.5 C 158.167,72.3333 293.834,72.5 429.5,73C 435.693,75.1926 439.859,79.3593 442,85.5C 442.5,134.499 442.667,183.499 442.5,232.5C 439.5,232.5 436.5,232.5 433.5,232.5C 433.667,184.166 433.5,135.832 433,87.5C 431.749,84.6193 429.583,82.786 426.5,82C 292.833,81.3333 159.167,81.3333 25.5,82C 22.6667,83.5 20.5,85.6667 19,88.5C 18.5,171.499 18.3333,254.499 18.5,337.5C 15.5,337.5 12.5,337.5 9.5,337.5C 9.33334,253.499 9.5,169.499 10,85.5C 12.3531,79.3154 16.5198,74.982 22.5,72.5 Z"/></g>
<g><path style="opacity:1" fill="#a2a7ac" d="M 422.5,232.5 C 422.5,185.833 422.5,139.167 422.5,92.5C 291.5,92.5 160.5,92.5 29.5,92.5C 29.5,145.5 29.5,198.5 29.5,251.5C 28.5011,198.336 28.1677,145.003 28.5,91.5C 160.167,91.5 291.833,91.5 423.5,91.5C 423.832,138.67 423.499,185.67 422.5,232.5 Z"/></g>
<g><path style="opacity:1" fill="#ecf3fb" d="M 422.5,232.5 C 415.5,232.5 408.5,232.5 401.5,232.5C 401.884,225.411 401.384,218.411 400,211.5C 397.913,207.698 394.746,205.198 390.5,204C 363.167,203.333 335.833,203.333 308.5,204C 303.427,205.406 299.927,208.572 298,213.5C 297.5,226.162 297.333,238.829 297.5,251.5C 291.5,251.5 285.5,251.5 279.5,251.5C 279.667,239.162 279.5,226.829 279,214.5C 277.526,209.026 274.026,205.526 268.5,204C 241.167,203.333 213.833,203.333 186.5,204C 181.427,205.406 177.927,208.572 176,213.5C 175.5,226.162 175.333,238.829 175.5,251.5C 168.833,251.5 162.167,251.5 155.5,251.5C 155.667,239.162 155.5,226.829 155,214.5C 153.526,209.026 150.026,205.526 144.5,204C 117.167,203.333 89.8333,203.333 62.5,204C 57.4268,205.406 53.9268,208.572 52,213.5C 51.5001,226.162 51.3334,238.829 51.5,251.5C 44.1667,251.5 36.8333,251.5 29.5,251.5C 29.5,198.5 29.5,145.5 29.5,92.5C 160.5,92.5 291.5,92.5 422.5,92.5C 422.5,139.167 422.5,185.833 422.5,232.5 Z"/></g>
<g><path style="opacity:1" fill="#080707" d="M 383.5,101.5 C 402.675,101.174 411.841,110.507 411,129.5C 404.358,146.794 392.525,151.628 375.5,144C 363.456,132.899 362.456,120.899 372.5,108C 375.933,105.289 379.6,103.123 383.5,101.5 Z"/></g>
<g><path style="opacity:1" fill="#070909" d="M 63.5,109.5 C 73.1724,109.334 82.8391,109.5 92.5,110C 104.355,114.219 107.521,122.053 102,133.5C 99.8995,136.467 97.0662,138.3 93.5,139C 82.8333,139.667 72.1667,139.667 61.5,139C 53.5349,135.352 50.3682,129.185 52,120.5C 54.4373,115.226 58.2706,111.56 63.5,109.5 Z"/></g>
<g><path style="opacity:1" fill="#f5627a" d="M 385.5,111.5 C 397.109,111.418 402.275,117.085 401,128.5C 397.672,136.285 391.839,139.118 383.5,137C 376.077,132.658 373.91,126.492 377,118.5C 379.439,115.549 382.272,113.216 385.5,111.5 Z"/></g>
<g><path style="opacity:1" fill="#6ccef0" d="M 64.5,119.5 C 73.5062,119.334 82.5062,119.5 91.5,120C 95.0846,122.528 95.418,125.528 92.5,129C 82.8333,129.667 73.1667,129.667 63.5,129C 60.6749,125.476 61.0082,122.31 64.5,119.5 Z"/></g>
<g><path style="opacity:1" fill="#0e0e0f" d="M 273.5,119.5 C 277.846,119.334 282.179,119.501 286.5,120C 291.368,122.477 291.701,125.477 287.5,129C 282.5,129.667 277.5,129.667 272.5,129C 269.675,125.476 270.008,122.31 273.5,119.5 Z"/></g>
<g><path style="opacity:1" fill="#0e0e0f" d="M 304.5,119.5 C 308.846,119.334 313.179,119.501 317.5,120C 320.978,122.706 321.311,125.706 318.5,129C 313.5,129.667 308.5,129.667 303.5,129C 299.622,125.447 299.955,122.281 304.5,119.5 Z"/></g>
<g><path style="opacity:1" fill="#0c0c0c" d="M 334.5,119.5 C 339.628,119.112 344.628,119.612 349.5,121C 351.013,123.916 350.68,126.582 348.5,129C 343.5,129.667 338.5,129.667 333.5,129C 330.753,125.553 331.087,122.386 334.5,119.5 Z"/></g>
<g><path style="opacity:0.901" fill="#fc647d" d="M 469.5,151.5 C 475.523,150.197 479.189,152.53 480.5,158.5C 478.316,165.673 473.983,167.339 467.5,163.5C 464.641,158.932 465.307,154.932 469.5,151.5 Z"/></g>
<g><path style="opacity:1" fill="#020202" d="M 151.5,154.5 C 201.834,154.333 252.168,154.5 302.5,155C 314.323,161.467 316.489,170.301 309,181.5C 306.749,183.377 304.249,184.877 301.5,186C 251.833,186.667 202.167,186.667 152.5,186C 141.064,179.691 138.564,170.858 145,159.5C 147.326,157.934 149.492,156.268 151.5,154.5 Z"/></g>
<g><path style="opacity:1" fill="#e1aa10" d="M 155.5,163.5 C 158.833,163.5 162.167,163.5 165.5,163.5C 165.5,167.833 165.5,172.167 165.5,176.5C 161.818,176.665 158.152,176.499 154.5,176C 150.286,171.361 150.619,167.195 155.5,163.5 Z"/></g>
<g><path style="opacity:1" fill="#f0d27f" d="M 175.5,163.5 C 216.501,163.333 257.501,163.5 298.5,164C 304.753,167.579 305.086,171.579 299.5,176C 258.168,176.5 216.835,176.667 175.5,176.5C 175.5,172.167 175.5,167.833 175.5,163.5 Z"/></g>
<g><path style="opacity:0.94" fill="#f5c84c" d="M 511.5,202.5 C 511.5,203.167 511.5,203.833 511.5,204.5C 507.581,205.793 503.914,207.626 500.5,210C 497.358,213.785 494.858,217.952 493,222.5C 491.525,219.079 489.859,215.746 488,212.5C 484.115,208.425 479.615,205.425 474.5,203.5C 483.458,200.208 489.791,194.208 493.5,185.5C 496.289,194.624 502.289,200.291 511.5,202.5 Z"/></g>
<g><path style="opacity:1" fill="#a69157" d="M 137.5,215.5 C 114.833,214.167 92.1667,214.167 69.5,215.5C 68.7109,215.217 68.0442,214.717 67.5,214C 91.5,213.333 115.5,213.333 139.5,214C 138.956,214.717 138.289,215.217 137.5,215.5 Z"/></g>
<g><path style="opacity:1" fill="#a69157" d="M 261.5,215.5 C 238.833,214.167 216.167,214.167 193.5,215.5C 192.711,215.217 192.044,214.717 191.5,214C 215.5,213.333 239.5,213.333 263.5,214C 262.956,214.717 262.289,215.217 261.5,215.5 Z"/></g>
<g><path style="opacity:1" fill="#a69157" d="M 383.5,215.5 C 360.833,214.167 338.167,214.167 315.5,215.5C 314.711,215.217 314.044,214.717 313.5,214C 337.5,213.333 361.5,213.333 385.5,214C 384.956,214.717 384.289,215.217 383.5,215.5 Z"/></g>
<g><path style="opacity:1" fill="#f9da84" d="M 137.5,215.5 C 126.863,228.412 115.53,240.745 103.5,252.5C 91.4699,240.745 80.1366,228.412 69.5,215.5C 92.1667,214.167 114.833,214.167 137.5,215.5 Z"/></g>
<g><path style="opacity:1" fill="#f9da84" d="M 261.5,215.5 C 250.863,228.412 239.53,240.745 227.5,252.5C 215.47,240.745 204.137,228.412 193.5,215.5C 216.167,214.167 238.833,214.167 261.5,215.5 Z"/></g>
<g><path style="opacity:1" fill="#f9db84" d="M 383.5,215.5 C 378.858,221.252 373.858,226.752 368.5,232C 357.261,231.463 348.261,235.629 341.5,244.5C 332.811,234.813 324.144,225.147 315.5,215.5C 338.167,214.167 360.833,214.167 383.5,215.5 Z"/></g>
<g><path style="opacity:1" fill="#f9da84" d="M 61.5,222.5 C 73.1166,235.121 84.7832,247.787 96.5,260.5C 85.1858,273.649 73.6858,286.649 62,299.5C 61.5,273.835 61.3334,248.169 61.5,222.5 Z"/></g>
<g><path style="opacity:1" fill="#f9da84" d="M 144.5,222.5 C 145.663,247.997 145.83,273.663 145,299.5C 133.314,286.649 121.814,273.649 110.5,260.5C 122.226,248.111 133.56,235.445 144.5,222.5 Z"/></g>
<g><path style="opacity:1" fill="#f9da84" d="M 185.5,222.5 C 197.117,235.121 208.783,247.787 220.5,260.5C 209.186,273.649 197.686,286.649 186,299.5C 185.5,273.835 185.333,248.169 185.5,222.5 Z"/></g>
<g><path style="opacity:1" fill="#f9da84" d="M 268.5,222.5 C 269.663,247.997 269.83,273.663 269,299.5C 257.314,286.649 245.814,273.649 234.5,260.5C 246.226,248.111 257.56,235.445 268.5,222.5 Z"/></g>
<g><path style="opacity:1" fill="#f8da84" d="M 307.5,222.5 C 317.835,232.67 327.669,243.337 337,254.5C 337.667,258.833 337.667,263.167 337,267.5C 326.964,277.868 317.297,288.534 308,299.5C 307.5,273.835 307.333,248.169 307.5,222.5 Z"/></g>
<g><path style="opacity:1" fill="#f2d480" d="M 390.5,222.5 C 391.479,225.625 391.813,228.958 391.5,232.5C 388.482,232.665 385.482,232.498 382.5,232C 385.002,228.667 387.668,225.501 390.5,222.5 Z"/></g>
<g><path style="opacity:1" fill="#4f8cd5" d="M 359.5,242.5 C 395.835,242.333 432.168,242.5 468.5,243C 473.525,244.689 477.359,247.856 480,252.5C 481.657,321.109 481.99,389.776 481,458.5C 478.833,464.667 474.667,468.833 468.5,471C 432.5,471.667 396.5,471.667 360.5,471C 355.645,469.495 351.812,466.662 349,462.5C 347.343,392.891 347.01,323.224 348,253.5C 350.437,248.226 354.271,244.56 359.5,242.5 Z"/></g>
<g><path style="opacity:1" fill="#06070a" d="M 364.5,251.5 C 373.839,251.334 383.173,251.5 392.5,252C 394.246,252.471 395.913,253.138 397.5,254C 400.656,257.312 403.323,260.979 405.5,265C 416.145,270.544 423.645,267.711 428,256.5C 430.08,254.877 432.246,253.377 434.5,252C 444.167,251.333 453.833,251.333 463.5,252C 467.667,253.5 470.5,256.333 472,260.5C 472.667,324.833 472.667,389.167 472,453.5C 470.833,457.333 468.333,459.833 464.5,461C 430.833,461.667 397.167,461.667 363.5,461C 361.376,459.878 359.543,458.378 358,456.5C 356.344,390.557 356.011,324.557 357,258.5C 359.015,255.588 361.515,253.255 364.5,251.5 Z"/></g>
<g><path style="opacity:1" fill="#46879d" d="M 51.5,262.5 C 44.1667,262.5 36.8333,262.5 29.5,262.5C 29.5,287.5 29.5,312.5 29.5,337.5C 28.5023,312.339 28.1689,287.005 28.5,261.5C 36.3516,261.175 44.0182,261.508 51.5,262.5 Z"/></g>
<g><path style="opacity:1" fill="#6fd4f6" d="M 309.5,317.5 C 318.318,318.493 327.318,318.827 336.5,318.5C 336.5,324.833 336.5,331.167 336.5,337.5C 234.167,337.5 131.833,337.5 29.5,337.5C 29.5,312.5 29.5,287.5 29.5,262.5C 36.8333,262.5 44.1667,262.5 51.5,262.5C 51.3334,277.504 51.5001,292.504 52,307.5C 53.7786,311.612 56.6119,314.778 60.5,317C 88.8333,317.667 117.167,317.667 145.5,317C 149.974,315.192 153.141,312.026 155,307.5C 155.5,292.17 155.667,276.837 155.5,261.5C 162.167,261.5 168.833,261.5 175.5,261.5C 175.333,276.837 175.5,292.17 176,307.5C 177.779,311.612 180.612,314.778 184.5,317C 212.833,317.667 241.167,317.667 269.5,317C 273.974,315.192 277.141,312.026 279,307.5C 279.5,292.17 279.667,276.837 279.5,261.5C 285.5,261.5 291.5,261.5 297.5,261.5C 297.333,276.837 297.5,292.17 298,307.5C 300.18,312.853 304.013,316.187 309.5,317.5 Z"/></g>
<g><path style="opacity:1" fill="#eaf1f9" d="M 461.5,262.5 C 461.5,276.833 461.5,291.167 461.5,305.5C 453.167,305.5 444.833,305.5 436.5,305.5C 431.669,290.913 421.669,285.413 406.5,289C 398.737,291.926 394.07,297.426 392.5,305.5C 383.833,305.5 375.167,305.5 366.5,305.5C 366.5,290.833 366.5,276.167 366.5,261.5C 374.84,261.334 383.173,261.5 391.5,262C 399.445,277.966 411.445,281.966 427.5,274C 431.654,270.848 434.654,266.848 436.5,262C 445.01,261.177 453.344,261.343 461.5,262.5 Z"/></g>
<g><path style="opacity:1" fill="#f9da84" d="M 102.5,268.5 C 114.923,280.762 126.923,293.595 138.5,307C 115.167,307.667 91.8333,307.667 68.5,307C 80.0416,294.295 91.375,281.462 102.5,268.5 Z"/></g>
<g><path style="opacity:1" fill="#f9da84" d="M 226.5,268.5 C 238.923,280.762 250.923,293.595 262.5,307C 239.167,307.667 215.833,307.667 192.5,307C 204.042,294.295 215.375,281.462 226.5,268.5 Z"/></g>
<g><path style="opacity:1" fill="#f8d984" d="M 335.5,283.5 C 336.492,291.316 336.826,299.316 336.5,307.5C 329.167,307.5 321.833,307.5 314.5,307.5C 321.5,299.5 328.5,291.5 335.5,283.5 Z"/></g>
<g><path style="opacity:1" fill="#f5627a" d="M 411.5,297.5 C 423.109,297.418 428.275,303.085 427,314.5C 423.672,322.285 417.839,325.118 409.5,323C 402.077,318.658 399.91,312.492 403,304.5C 405.439,301.549 408.272,299.216 411.5,297.5 Z"/></g>
<g><path style="opacity:1" fill="#67696d" d="M 461.5,262.5 C 462.496,276.99 462.829,291.657 462.5,306.5C 453.651,306.826 444.984,306.493 436.5,305.5C 444.833,305.5 453.167,305.5 461.5,305.5C 461.5,291.167 461.5,276.833 461.5,262.5 Z"/></g>
<g><path style="opacity:1" fill="#645835" d="M 335.5,283.5 C 335.56,282.957 335.893,282.624 336.5,282.5C 337.498,291.141 337.831,299.808 337.5,308.5C 329.078,308.832 321.411,308.499 314.5,307.5C 321.833,307.5 329.167,307.5 336.5,307.5C 336.826,299.316 336.492,291.316 335.5,283.5 Z"/></g>
<g><path style="opacity:1" fill="#6fd4f7" d="M 436.5,316.5 C 444.833,316.5 453.167,316.5 461.5,316.5C 461.5,361.5 461.5,406.5 461.5,451.5C 429.833,451.5 398.167,451.5 366.5,451.5C 366.5,406.167 366.5,360.833 366.5,315.5C 375.167,315.5 383.833,315.5 392.5,315.5C 395.181,326.512 402.181,332.512 413.5,333.5C 425.452,333.539 433.119,327.872 436.5,316.5 Z"/></g>
<g><path style="opacity:1" fill="#46869c" d="M 436.5,316.5 C 444.984,315.507 453.651,315.174 462.5,315.5C 462.832,361.003 462.499,406.336 461.5,451.5C 461.5,406.5 461.5,361.5 461.5,316.5C 453.167,316.5 444.833,316.5 436.5,316.5 Z"/></g>
<g><path style="opacity:1" fill="#427e93" d="M 309.5,317.5 C 318.833,317.5 328.167,317.5 337.5,317.5C 337.824,324.354 337.491,331.021 336.5,337.5C 336.5,331.167 336.5,324.833 336.5,318.5C 327.318,318.827 318.318,318.493 309.5,317.5 Z"/></g>
<g><path style="opacity:1" fill="#040708" d="M 385.5,341.5 C 405.554,341.048 425.554,341.548 445.5,343C 457.656,351.096 458.656,360.429 448.5,371C 446.5,372 444.5,373 442.5,374C 423.5,374.667 404.5,374.667 385.5,374C 373.852,368.729 370.686,360.229 376,348.5C 378.825,345.524 381.992,343.191 385.5,341.5 Z"/></g>
<g><path style="opacity:1" fill="#ecf3fb" d="M 9.5,347.5 C 118.833,347.5 228.167,347.5 337.5,347.5C 337.5,364.833 337.5,382.167 337.5,399.5C 232.499,399.667 127.499,399.5 22.5,399C 16.3333,396.833 12.1667,392.667 10,386.5C 9.50011,373.504 9.33344,360.504 9.5,347.5 Z"/></g>
<g><path style="opacity:1" fill="#e1aa10" d="M 386.5,351.5 C 389.5,351.5 392.5,351.5 395.5,351.5C 395.5,355.833 395.5,360.167 395.5,364.5C 383.862,365.574 380.862,361.241 386.5,351.5 Z"/></g>
<g><path style="opacity:1" fill="#f1d380" d="M 405.5,351.5 C 417.505,351.333 429.505,351.5 441.5,352C 447.06,356.522 446.727,360.522 440.5,364C 428.838,364.5 417.171,364.667 405.5,364.5C 405.5,360.167 405.5,355.833 405.5,351.5 Z"/></g>
<g><path style="opacity:1" fill="#060606" d="M 220.5,357.5 C 234.843,356.02 242.01,362.354 242,376.5C 237.426,389.197 228.926,392.697 216.5,387C 206.216,375.488 207.55,365.654 220.5,357.5 Z"/></g>
<g><path style="opacity:1" fill="#bfcfdc" d="M 222.5,367.5 C 229.827,366.329 232.994,369.329 232,376.5C 228.61,380.032 224.943,380.366 221,377.5C 218.729,373.697 219.229,370.363 222.5,367.5 Z"/></g>
<g><path style="opacity:1" fill="#040708" d="M 385.5,382.5 C 404.503,382.333 423.503,382.5 442.5,383C 453.4,386.967 457.233,394.467 454,405.5C 451.249,410.59 447.083,413.757 441.5,415C 421.768,415.963 402.102,415.63 382.5,414C 373.286,407.772 371.119,399.606 376,389.5C 378.79,386.535 381.957,384.202 385.5,382.5 Z"/></g>
<g><path style="opacity:1" fill="#e1aa10" d="M 387.5,392.5 C 390.167,392.5 392.833,392.5 395.5,392.5C 395.5,396.833 395.5,401.167 395.5,405.5C 386.684,407.506 382.85,404.173 384,395.5C 385.145,394.364 386.312,393.364 387.5,392.5 Z"/></g>
<g><path style="opacity:1" fill="#f1d380" d="M 405.5,392.5 C 417.171,392.333 428.838,392.5 440.5,393C 446.727,396.478 447.06,400.478 441.5,405C 429.505,405.5 417.505,405.667 405.5,405.5C 405.5,401.167 405.5,396.833 405.5,392.5 Z"/></g>
<g><path style="opacity:1" fill="#c5d5e3" d="M 187.5,409.5 C 213.5,409.5 239.5,409.5 265.5,409.5C 265.5,422.833 265.5,436.167 265.5,449.5C 239.5,449.5 213.5,449.5 187.5,449.5C 187.5,436.167 187.5,422.833 187.5,409.5 Z"/></g>
<g><path style="opacity:0.94" fill="#f5c84c" d="M 33.5,423.5 C 39.5184,422.191 43.1851,424.524 44.5,430.5C 42.9997,436.252 39.3331,438.419 33.5,437C 28.2464,432.408 28.2464,427.908 33.5,423.5 Z"/></g>
<g><path style="opacity:1" fill="#060b0c" d="M 405.5,423.5 C 411.509,423.334 417.509,423.501 423.5,424C 426.978,426.706 427.311,429.706 424.5,433C 417.833,433.667 411.167,433.667 404.5,433C 401.753,429.553 402.087,426.386 405.5,423.5 Z"/></g>
<g><path style="opacity:0.951" fill="#6fd6f9" d="M 84.5,429.5 C 92.1368,429.054 95.4701,432.72 94.5,440.5C 103.689,439.749 106.689,443.583 103.5,452C 100.649,453.289 97.6492,453.789 94.5,453.5C 95.1661,463.569 90.9994,466.569 82,462.5C 80.7114,459.649 80.2114,456.649 80.5,453.5C 70.8406,454.65 67.8406,450.816 71.5,442C 74.3508,440.711 77.3508,440.211 80.5,440.5C 79.6561,435.862 80.9894,432.195 84.5,429.5 Z"/></g>
<g><path style="opacity:1" fill="#e6edf4" d="M 143.5,459.5 C 198.501,459.333 253.501,459.5 308.5,460C 312.747,464.163 312.414,467.829 307.5,471C 253.167,471.667 198.833,471.667 144.5,471C 139.649,467.573 139.316,463.74 143.5,459.5 Z"/></g>
</svg>
