<?xml version="1.0" encoding="UTF-8"?>
<!DOCTYPE svg PUBLIC "-//W3C//DTD SVG 1.1//EN" "http://www.w3.org/Graphics/SVG/1.1/DTD/svg11.dtd">
<svg xmlns="http://www.w3.org/2000/svg" version="1.1" width="512px" height="512px" style="shape-rendering:geometricPrecision; text-rendering:geometricPrecision; image-rendering:optimizeQuality; fill-rule:evenodd; clip-rule:evenodd" xmlns:xlink="http://www.w3.org/1999/xlink">
<g><path style="opacity:0.976" fill="#000000" d="M 147.5,-0.5 C 219.5,-0.5 291.5,-0.5 363.5,-0.5C 372.363,2.69301 378.696,8.69301 382.5,17.5C 354.506,18.3332 326.506,18.8332 298.5,19C 296.714,19.7845 295.214,20.9512 294,22.5C 292.691,27.0658 292.191,31.7325 292.5,36.5C 237.5,36.5 182.5,36.5 127.5,36.5C 124.561,18.6967 131.228,6.36332 147.5,-0.5 Z"/></g>
<g><path style="opacity:0.952" fill="#000000" d="M -0.5,35.5 C 24.1667,35.5 48.8333,35.5 73.5,35.5C 73.5,54.1667 73.5,72.8333 73.5,91.5C 48.8333,91.5 24.1667,91.5 -0.5,91.5C -0.5,72.8333 -0.5,54.1667 -0.5,35.5 Z M 18.5,54.5 C 30.1667,54.5 41.8333,54.5 53.5,54.5C 53.5,60.5 53.5,66.5 53.5,72.5C 41.8333,72.5 30.1667,72.5 18.5,72.5C 18.5,66.5 18.5,60.5 18.5,54.5 Z"/></g>
<g><path style="opacity:0.96" fill="#000000" d="M 309.5,35.5 C 370.833,35.5 432.167,35.5 493.5,35.5C 493.5,66.1667 493.5,96.8333 493.5,127.5C 432.167,127.5 370.833,127.5 309.5,127.5C 309.5,96.8333 309.5,66.1667 309.5,35.5 Z M 329.5,54.5 C 341.167,54.5 352.833,54.5 364.5,54.5C 364.5,60.5 364.5,66.5 364.5,72.5C 352.833,72.5 341.167,72.5 329.5,72.5C 329.5,66.5 329.5,60.5 329.5,54.5 Z M 383.5,54.5 C 413.833,54.5 444.167,54.5 474.5,54.5C 474.5,60.5 474.5,66.5 474.5,72.5C 444.167,72.5 413.833,72.5 383.5,72.5C 383.5,66.5 383.5,60.5 383.5,54.5 Z M 329.5,91.5 C 377.833,91.5 426.167,91.5 474.5,91.5C 474.5,97.1667 474.5,102.833 474.5,108.5C 426.167,108.5 377.833,108.5 329.5,108.5C 329.5,102.833 329.5,97.1667 329.5,91.5 Z"/></g>
<g><path style="opacity:0.98" fill="#000000" d="M 127.5,53.5 C 182.5,53.5 237.5,53.5 292.5,53.5C 292.333,81.8353 292.5,110.169 293,138.5C 293.973,142.406 296.473,144.573 300.5,145C 328.165,145.5 355.831,145.667 383.5,145.5C 383.667,183.501 383.5,221.501 383,259.5C 367.167,273.333 351.333,287.167 335.5,301C 304.576,304.865 284.743,321.698 276,351.5C 274.975,364.16 273.975,376.827 273,389.5C 269.721,396.446 264.721,401.779 258,405.5C 255.224,411.134 256.391,415.634 261.5,419C 286.5,419.667 311.5,419.667 336.5,419C 356.795,415.949 372.295,405.782 383,388.5C 383.5,405.163 383.667,421.83 383.5,438.5C 322.5,438.5 261.5,438.5 200.5,438.5C 200.667,426.162 200.5,413.829 200,401.5C 199.934,398.724 198.768,396.558 196.5,395C 173.591,393.521 150.591,393.021 127.5,393.5C 127.5,373.833 127.5,354.167 127.5,334.5C 133.796,335.494 140.13,336.16 146.5,336.5C 146.5,345.833 146.5,355.167 146.5,364.5C 152.167,364.5 157.833,364.5 163.5,364.5C 163.5,355.167 163.5,345.833 163.5,336.5C 215.726,330.647 250.559,302.98 268,253.5C 270.469,244.991 271.969,236.324 272.5,227.5C 281.833,227.5 291.167,227.5 300.5,227.5C 300.5,221.833 300.5,216.167 300.5,210.5C 291.167,210.5 281.833,210.5 272.5,210.5C 266.213,157.093 237.546,121.926 186.5,105C 178.958,102.965 171.291,101.798 163.5,101.5C 163.5,92.1667 163.5,82.8333 163.5,73.5C 157.833,73.5 152.167,73.5 146.5,73.5C 146.5,82.8333 146.5,92.1667 146.5,101.5C 140.106,101.646 133.773,102.313 127.5,103.5C 127.5,86.8333 127.5,70.1667 127.5,53.5 Z"/></g>
<g><path style="opacity:0.966" fill="#000000" d="M 140.5,118.5 C 142.5,118.5 144.5,118.5 146.5,118.5C 146.5,124.5 146.5,130.5 146.5,136.5C 152.167,136.5 157.833,136.5 163.5,136.5C 163.5,130.5 163.5,124.5 163.5,118.5C 207.88,124.118 237.38,148.118 252,190.5C 253.708,197.081 254.875,203.748 255.5,210.5C 249.5,210.5 243.5,210.5 237.5,210.5C 237.5,216.167 237.5,221.833 237.5,227.5C 243.5,227.5 249.5,227.5 255.5,227.5C 252.719,255.399 240.719,278.399 219.5,296.5C 218.888,269.114 206.888,248.614 183.5,235C 200.372,219.186 204.205,200.686 195,179.5C 178.206,154.51 156.373,149.01 129.5,163C 110.007,178.804 105.174,198.304 115,221.5C 118.132,226.297 121.632,230.797 125.5,235C 102.875,249.065 91.2084,269.565 90.5,296.5C 69.0044,278.615 57.0044,255.615 54.5,227.5C 60.5,227.5 66.5,227.5 72.5,227.5C 72.5,221.833 72.5,216.167 72.5,210.5C 66.5,210.5 60.5,210.5 54.5,210.5C 61.8443,159.758 90.5109,129.091 140.5,118.5 Z"/></g>
<g><path style="opacity:0.959" fill="#000000" d="M 151.5,172.5 C 166.726,172.194 176.893,179.194 182,193.5C 184.156,217.342 173.322,228.842 149.5,228C 132.168,222.974 125.001,211.474 128,193.5C 131.968,182.026 139.801,175.026 151.5,172.5 Z"/></g>
<g><path style="opacity:0.958" fill="#000000" d="M 511.5,188.5 C 511.5,191.5 511.5,194.5 511.5,197.5C 469.276,246.566 426.443,295.233 383,343.5C 372.167,332.667 361.333,321.833 350.5,311C 397.833,269 445.167,227 492.5,185C 499.967,179.989 506.301,181.155 511.5,188.5 Z"/></g>
<g><path style="opacity:0.965" fill="#000000" d="M 153.5,245.5 C 177.339,246.85 192.839,258.85 200,281.5C 201.182,290.796 201.682,300.13 201.5,309.5C 189.44,315.015 176.773,318.349 163.5,319.5C 163.5,313.5 163.5,307.5 163.5,301.5C 157.833,301.5 152.167,301.5 146.5,301.5C 146.5,307.5 146.5,313.5 146.5,319.5C 133.538,318.509 121.205,315.176 109.5,309.5C 105.326,289.207 110.326,271.707 124.5,257C 133.124,250.297 142.791,246.464 153.5,245.5 Z"/></g>
<g><path style="opacity:0.967" fill="#000000" d="M 329.5,319.5 C 331.527,319.338 333.527,319.505 335.5,320C 348.333,332.833 361.167,345.667 374,358.5C 372.13,380.379 360.63,394.546 339.5,401C 321.855,402.714 304.189,402.881 286.5,401.5C 288.702,397.061 290.202,392.394 291,387.5C 291.149,376.458 291.816,365.458 293,354.5C 298.229,335.434 310.396,323.768 329.5,319.5 Z"/></g>
<g><path style="opacity:0.964" fill="#000000" d="M -0.5,410.5 C 60.5,410.5 121.5,410.5 182.5,410.5C 182.5,429.167 182.5,447.833 182.5,466.5C 121.5,466.5 60.5,466.5 -0.5,466.5C -0.5,447.833 -0.5,429.167 -0.5,410.5 Z M 18.5,429.5 C 33.5,429.5 48.5,429.5 63.5,429.5C 63.5,435.5 63.5,441.5 63.5,447.5C 48.5,447.5 33.5,447.5 18.5,447.5C 18.5,441.5 18.5,435.5 18.5,429.5 Z M 82.5,429.5 C 109.5,429.5 136.5,429.5 163.5,429.5C 163.5,435.5 163.5,441.5 163.5,447.5C 136.5,447.5 109.5,447.5 82.5,447.5C 82.5,441.5 82.5,435.5 82.5,429.5 Z"/></g>
<g><path style="opacity:0.987" fill="#000000" d="M 363.5,511.5 C 291.5,511.5 219.5,511.5 147.5,511.5C 134.261,506.919 127.594,497.586 127.5,483.5C 149.503,483.667 171.503,483.5 193.5,483C 197.406,482.027 199.573,479.527 200,475.5C 200.5,469.175 200.666,462.842 200.5,456.5C 261.5,456.5 322.5,456.5 383.5,456.5C 383.941,469.241 383.441,481.908 382,494.5C 378.167,502.838 372,508.505 363.5,511.5 Z M 246.5,475.5 C 252.5,475.5 258.5,475.5 264.5,475.5C 264.5,481.167 264.5,486.833 264.5,492.5C 258.5,492.5 252.5,492.5 246.5,492.5C 246.5,486.833 246.5,481.167 246.5,475.5 Z"/></g>
</svg>
