<?xml version="1.0" encoding="UTF-8"?>
<!DOCTYPE svg PUBLIC "-//W3C//DTD SVG 1.1//EN" "http://www.w3.org/Graphics/SVG/1.1/DTD/svg11.dtd">
<svg xmlns="http://www.w3.org/2000/svg" version="1.1" width="512px" height="512px" style="shape-rendering:geometricPrecision; text-rendering:geometricPrecision; image-rendering:optimizeQuality; fill-rule:evenodd; clip-rule:evenodd" xmlns:xlink="http://www.w3.org/1999/xlink">
<g><path style="opacity:0.986" fill="#c1dde5" d="M 135.5,-0.5 C 215.5,-0.5 295.5,-0.5 375.5,-0.5C 394.037,4.53999 405.204,16.54 409,35.5C 409.667,182.167 409.667,328.833 409,475.5C 405.204,494.46 394.037,506.46 375.5,511.5C 295.5,511.5 215.5,511.5 135.5,511.5C 117.414,506.578 106.247,494.912 102,476.5C 101.333,329.167 101.333,181.833 102,34.5C 106.247,16.0883 117.414,4.42163 135.5,-0.5 Z"/></g>
<g><path style="opacity:1" fill="#2a2a49" d="M 138.5,16.5 C 157.5,16.5 176.5,16.5 195.5,16.5C 192.939,27.1959 196.272,35.3625 205.5,41C 221.936,42.1453 238.436,42.6453 255,42.5C 270.5,42.3333 286,42.1667 301.5,42C 312.726,37.223 317.059,28.723 314.5,16.5C 333.503,16.3334 352.503,16.5001 371.5,17C 381.14,19.305 387.64,25.1384 391,34.5C 391.667,181.833 391.667,329.167 391,476.5C 387.402,486.769 380.235,492.602 369.5,494C 292.5,494.667 215.5,494.667 138.5,494C 129.427,491.261 123.26,485.427 120,476.5C 119.333,329.167 119.333,181.833 120,34.5C 123.441,25.5567 129.608,19.5567 138.5,16.5 Z"/></g>
<g><path style="opacity:1" fill="#2071ea" d="M 184.5,84.5 C 188.95,84.1416 192.45,85.8083 195,89.5C 195.041,112.883 195.707,136.217 197,159.5C 202.544,169.854 210.711,172.688 221.5,168C 225.161,165.337 227.661,161.837 229,157.5C 229.333,135.167 229.667,112.833 230,90.5C 236.103,82.3832 241.77,82.7165 247,91.5C 247.667,113.5 247.667,135.5 247,157.5C 241.043,180.734 226.21,190.234 202.5,186C 189.175,181.01 181.341,171.51 179,157.5C 178.333,135.167 178.333,112.833 179,90.5C 180.36,87.9774 182.193,85.9774 184.5,84.5 Z"/></g>
<g><path style="opacity:1" fill="#2072ec" d="M 268.5,85.5 C 272.257,85.0708 275.757,85.7375 279,87.5C 285.082,98.0003 291.416,108.334 298,118.5C 303.835,110.168 309.168,101.501 314,92.5C 315.458,90.04 317.291,87.8734 319.5,86C 328.053,83.8296 332.22,86.9962 332,95.5C 324.286,109.098 316.453,122.598 308.5,136C 316.201,149.233 324.034,162.4 332,175.5C 332.618,184.768 328.452,188.268 319.5,186C 317.291,184.127 315.458,181.96 314,179.5C 309.168,170.499 303.835,161.832 298,153.5C 291.375,163.916 284.875,174.416 278.5,185C 274.197,188.422 270.03,188.256 266,184.5C 264.517,181.298 264.183,177.964 265,174.5C 272.885,161.897 280.385,149.063 287.5,136C 280.385,122.937 272.885,110.103 265,97.5C 263.593,92.6427 264.76,88.6427 268.5,85.5 Z"/></g>
<g><path style="opacity:1" fill="#fafafb" d="M 355.5,212.5 C 363.472,212.636 366.972,216.636 366,224.5C 365.167,226.667 363.667,228.167 361.5,229C 294.167,248.667 226.833,268.333 159.5,288C 149.505,291.43 144.671,287.93 145,277.5C 146.543,275.622 148.376,274.122 150.5,273C 218.997,252.964 287.33,232.798 355.5,212.5 Z"/></g>
<g><path style="opacity:1" fill="#25df70" d="M 183.5,315.5 C 188.126,314.7 191.96,316.034 195,319.5C 195.333,342.167 195.667,364.833 196,387.5C 201.691,400.763 210.858,403.93 223.5,397C 225.969,394.559 227.802,391.726 229,388.5C 229.333,366.167 229.667,343.833 230,321.5C 232.932,315.456 237.432,313.956 243.5,317C 245.049,318.214 246.215,319.714 247,321.5C 247.667,343.5 247.667,365.5 247,387.5C 240.83,411.334 225.663,420.834 201.5,416C 188.732,410.575 181.232,401.075 179,387.5C 178.333,365.167 178.333,342.833 179,320.5C 180.059,318.341 181.559,316.674 183.5,315.5 Z"/></g>
<g><path style="opacity:1" fill="#25e371" d="M 268.5,315.5 C 288.169,315.333 307.836,315.5 327.5,316C 333.758,320.561 334.091,325.561 328.5,331C 321.281,332.429 313.947,332.929 306.5,332.5C 306.5,355.167 306.5,377.833 306.5,400.5C 313.947,400.071 321.281,400.571 328.5,402C 334.205,407.814 333.538,412.814 326.5,417C 307.167,417.667 287.833,417.667 268.5,417C 263.605,412.284 263.272,407.284 267.5,402C 274.719,400.571 282.053,400.071 289.5,400.5C 289.5,377.833 289.5,355.167 289.5,332.5C 282.053,332.929 274.719,332.429 267.5,331C 263.254,325.483 263.588,320.317 268.5,315.5 Z"/></g>
<g><path style="opacity:1" fill="#17172b" d="M 191.5,460.5 C 233.835,460.333 276.168,460.5 318.5,461C 325.612,467.421 324.945,472.754 316.5,477C 275.167,477.667 233.833,477.667 192.5,477C 184.873,472.009 184.54,466.509 191.5,460.5 Z"/></g>
</svg>
