<?xml version="1.0" encoding="UTF-8"?>
<!DOCTYPE svg PUBLIC "-//W3C//DTD SVG 1.1//EN" "http://www.w3.org/Graphics/SVG/1.1/DTD/svg11.dtd">
<svg xmlns="http://www.w3.org/2000/svg" version="1.1" width="512px" height="512px" style="shape-rendering:geometricPrecision; text-rendering:geometricPrecision; image-rendering:optimizeQuality; fill-rule:evenodd; clip-rule:evenodd" xmlns:xlink="http://www.w3.org/1999/xlink">
<g><path style="opacity:0.924" fill="#000000" d="M 56.5,39.5 C 189.167,39.3333 321.834,39.5 454.5,40C 470.669,42.5025 480.836,51.6691 485,67.5C 485.667,157.167 485.667,246.833 485,336.5C 481.5,350.667 472.667,359.5 458.5,363C 401.834,363.5 345.168,363.667 288.5,363.5C 288.5,377.833 288.5,392.167 288.5,406.5C 321.987,416.162 355.321,426.329 388.5,437C 389.602,439.401 389.769,441.901 389,444.5C 382,452.833 375,461.167 368,469.5C 366.687,470.573 365.187,471.24 363.5,471.5C 337.137,463.768 310.804,455.935 284.5,448C 265.167,447.333 245.833,447.333 226.5,448C 199.646,456.511 172.646,464.178 145.5,471C 137.353,462.515 129.519,453.682 122,444.5C 121.231,441.901 121.398,439.401 122.5,437C 155.69,426.325 189.024,416.158 222.5,406.5C 222.5,392.167 222.5,377.833 222.5,363.5C 165.832,363.667 109.166,363.5 52.5,363C 38.3245,359.491 29.4912,350.658 26,336.5C 25.3333,246.833 25.3333,157.167 26,67.5C 30.3107,51.6858 40.4774,42.3524 56.5,39.5 Z M 55.5,51.5 C 188.834,51.3333 322.167,51.5 455.5,52C 465.443,54.942 471.609,61.442 474,71.5C 474.667,158.5 474.667,245.5 474,332.5C 471.386,343.448 464.552,349.948 453.5,352C 321.5,352.667 189.5,352.667 57.5,352C 46.4477,349.948 39.6144,343.448 37,332.5C 36.3333,245.5 36.3333,158.5 37,71.5C 39.5777,61.4253 45.7444,54.7586 55.5,51.5 Z M 61.5,76.5 C 190.833,76.5 320.167,76.5 449.5,76.5C 449.5,160.167 449.5,243.833 449.5,327.5C 320.167,327.5 190.833,327.5 61.5,327.5C 61.5,243.833 61.5,160.167 61.5,76.5 Z M 233.5,363.5 C 248.167,363.5 262.833,363.5 277.5,363.5C 277.5,387.5 277.5,411.5 277.5,435.5C 262.833,435.5 248.167,435.5 233.5,435.5C 233.5,411.5 233.5,387.5 233.5,363.5 Z M 220.5,418.5 C 222.456,424.412 223.123,430.745 222.5,437.5C 198.572,444.108 174.739,451.108 151,458.5C 146.174,454.054 141.674,449.221 137.5,444C 165.37,435.762 193.037,427.262 220.5,418.5 Z M 288.5,418.5 C 316.846,426.892 345.179,435.392 373.5,444C 369.79,449.602 365.29,454.435 360,458.5C 336.261,451.108 312.428,444.108 288.5,437.5C 288.5,431.167 288.5,424.833 288.5,418.5 Z"/></g>
<g><path style="opacity:0.931" fill="#000000" d="M 59.5,64.5 C 191.543,64.0069 323.543,64.5069 455.5,66C 457.378,67.5429 458.878,69.3762 460,71.5C 460.995,159.248 460.661,246.915 459,334.5C 457.786,336.049 456.286,337.215 454.5,338C 321.086,338.996 187.753,338.663 54.5,337C 52.9512,335.786 51.7845,334.286 51,332.5C 50.3333,245.5 50.3333,158.5 51,71.5C 52.8659,67.7838 55.6992,65.4505 59.5,64.5 Z M 61.5,76.5 C 61.5,160.167 61.5,243.833 61.5,327.5C 190.833,327.5 320.167,327.5 449.5,327.5C 449.5,243.833 449.5,160.167 449.5,76.5C 320.167,76.5 190.833,76.5 61.5,76.5 Z"/></g>
<g><path style="opacity:0.898" fill="#000000" d="M 269.5,130.5 C 277.505,129.342 280.339,132.675 278,140.5C 266.511,182.79 255.178,225.123 244,267.5C 242.113,273.679 238.446,275.012 233,271.5C 232.333,268.833 232.333,266.167 233,263.5C 244.676,218.979 256.843,174.646 269.5,130.5 Z"/></g>
<g><path style="opacity:0.902" fill="#000000" d="M 84.5,156.5 C 87.6852,156.02 90.5185,156.686 93,158.5C 93.3333,176.833 93.6667,195.167 94,213.5C 96.4593,226.959 104.459,234.626 118,236.5C 130.239,234.928 138.239,228.261 142,216.5C 142.333,197.5 142.667,178.5 143,159.5C 143.758,157.09 145.425,156.09 148,156.5C 150.034,156.354 151.701,157.02 153,158.5C 154.128,168.096 154.628,177.763 154.5,187.5C 154.576,198.536 154.076,209.536 153,220.5C 146.266,240.292 132.432,249.125 111.5,247C 96,243.5 86.5,234 83,218.5C 82.3333,198.5 82.3333,178.5 83,158.5C 83.7172,157.956 84.2172,157.289 84.5,156.5 Z"/></g>
<g><path style="opacity:0.89" fill="#000000" d="M 167.5,156.5 C 170.685,156.02 173.519,156.686 176,158.5C 182.014,169.207 188.514,179.54 195.5,189.5C 202.625,178.752 209.625,167.918 216.5,157C 223.438,154.94 226.271,157.44 225,164.5C 217.368,176.933 209.868,189.433 202.5,202C 209.868,214.567 217.368,227.067 225,239.5C 225.191,247.304 221.858,249.304 215,245.5C 208.333,234.833 201.667,224.167 195,213.5C 188.751,224.333 182.251,235 175.5,245.5C 168.046,249.182 164.879,246.849 166,238.5C 173.375,226.25 180.875,214.083 188.5,202C 180.623,189.749 173.123,177.249 166,164.5C 165.109,161.502 165.609,158.836 167.5,156.5 Z"/></g>
<g><path style="opacity:0.883" fill="#000000" d="M 294.5,156.5 C 298.013,155.876 300.847,156.876 303,159.5C 303.047,179.884 303.714,200.218 305,220.5C 314.07,236.479 326.57,239.979 342.5,231C 346.446,227.613 349.28,223.446 351,218.5C 351.333,199.5 351.667,180.5 352,161.5C 352.273,159.671 353.107,158.171 354.5,157C 357.099,156.231 359.599,156.398 362,157.5C 363.642,177.41 363.975,197.41 363,217.5C 359.833,234 350,243.833 333.5,247C 310.478,248.648 296.644,238.148 292,215.5C 291.333,197.167 291.333,178.833 292,160.5C 292.662,159.016 293.496,157.683 294.5,156.5 Z"/></g>
<g><path style="opacity:0.945" fill="#000000" d="M 379.5,156.5 C 395.17,156.333 410.837,156.5 426.5,157C 429.122,160.13 429.122,163.297 426.5,166.5C 420.561,167.457 414.561,167.79 408.5,167.5C 408.5,190.5 408.5,213.5 408.5,236.5C 414.509,236.334 420.509,236.501 426.5,237C 429.333,240.663 429,243.996 425.5,247C 410.167,247.667 394.833,247.667 379.5,247C 376.833,243.667 376.833,240.333 379.5,237C 385.491,236.501 391.491,236.334 397.5,236.5C 397.5,213.5 397.5,190.5 397.5,167.5C 391.491,167.666 385.491,167.499 379.5,167C 376.88,163.502 376.88,160.002 379.5,156.5 Z"/></g>
</svg>
